<?xml version="1.0" encoding="utf-8"?>
<!-- Generator: Adobe Illustrator 19.2.0, SVG Export Plug-In . SVG Version: 6.00 Build 0)  -->
<svg version="1.1" id="Layer_1" xmlns="http://www.w3.org/2000/svg" xmlns:xlink="http://www.w3.org/1999/xlink" x="0px" y="0px"
	 viewBox="0 0 372 127" style="enable-background:new 0 0 372 127;" xml:space="preserve">
<style type="text/css">
	.st0{opacity:0.2;fill:#A8C1C1;enable-background:new    ;}
</style>
<path class="st0" d="M372,61h-25.5v3.6h-23.6h-4.4h-2.6v-3h-10.7v-3.7h-3.7v3.7h-11.5v10h-2.3V32.2h-1.5v-7h-1.8v-3.5h-2.7v-5.5
	h-4.5v-5.7c0,0-0.2-10.5-12.8-10.5c-12.6-0.1-13.7,10.4-13.7,10.4v5.7h-6.4v5.5h-1.5v3.5h-2.5v7h-1.8v15.8h-38.5v2.6l1.8,0.7v47.1
	h-4.1V63.9h-14.4v-4.4h-13.3l-1.8-5.5l-2.2,5.5h-6.7v3h-16.3v18.1h-13.3v-2.7h-4.8V40.5h-10.2v-3.3h-2.6v3h-10.4v-3.7h-3.3v4.1h-4.1
	v-4.4H76.4v2.6H55.4V95h-3v5.5h-6.7V30.9H34.5v-4.8H0V127h372V64.6V61z"/>
</svg>
