<svg id="Layer_1" xmlns="http://www.w3.org/2000/svg" viewBox="0 0 372 167">
  <style>
    .st0{fill:#ddd4d3;}
  </style>
  <path fill-opacity="0.15" class="st0" d="M372 61.8h-10.7v-3.7h-3.7v3.7h-11.5v10H344V32.4h-1.5v-7h-1.8v-3.5H338v-5.5h-4.5v-5.7S333.3.2 320.7.2C308.1.2 307 10.7 307 10.7v5.7h-6.4v5.5h-1.5v3.5h-2.5v7h-1.8v15.7h-38.5v2.6l1.8.7v47H254V64h-14.4v-4.4h-13.3l-1.8-5.5-2.2 5.5h-6.7v3h-16.3v18.1H186V78h-4.8V40.7h-10.4v-3.3h-2.6v3h-10.4v-3.7h-3.3v4.1h-4.1v-4.4h-18.1V39h-21.1v56h-3v5.5h-6.7V31.1H90.3v-4.8H55.5v4.1h-9.8v63.8l-5 5h-10v-3.5H20.6V92l-4.3-5.7-4.1 5.6v3.8h-4v5H0V167h372V61.8z"/>
</svg>
