<svg xmlns="http://www.w3.org/2000/svg" viewBox="0 0 600 130">
  <defs>
    <style>
      .cls-1{filter: url(#AI_GaussianBlur_1);}
    </style>
    <filter id="AI_GaussianBlur_1" name="AI_GaussianBlur_1">
      <feGaussianBlur stdDeviation="2.00"/>
    </filter>
  </defs>
  <g class="cls-1">
    <path fill="#cbd4dc" d="M600 115.126h-5.535v2.95h-8.487v6.274h-8.118v-4.43h-2.583v-2.95h-2.95V85.7h-10.7v-5.26h-11.442v5.26h-11.992v27.213h-2.4V75.425H515.5v-7.16h-25.46v3.874h-26.2v3.285h-2.214v-4.948h-6.273v4.948h-13.1V91.2h-9.973v-4.8h-34.686v4.8h-12.957V80.417h-6.4V64.574h-7.01v-2.95h-10.7v-3.69h-3.69v3.69H345.4v9.96h-2.214v-39.3h-1.476v-7.01h-1.85v-3.532h-2.583v-5.506H332.8v-5.72S332.615 0 320.07 0s-13.654 10.517-13.654 10.517v5.72h-6.408v5.505h-1.526v3.535h-2.532v7.01h-1.85V47.97h-38.37v2.582l1.845.738v46.86h-4.058V63.836h-14.39v-4.43H225.84L224 53.873l-2.214 5.535h-6.646v2.95H198.9V80.44h-13.28v-2.583h-4.8V40.59h-10.328v-3.322h-2.583v2.952h-10.332v-3.69h-3.32v4.06H150.2V36.16h-18.08v2.583h-21.035v56.088h-2.952v5.535h-6.642V30.995H90.056V26.2H55.37v4.06h-9.78v75.65l-4.98 4.98h-9.962v-3.477H20.575V103.8l-4.29-5.7-4.08 5.56v3.758H8.14v4.954H0V130h600v-14.874z"/>
  </g>
</svg>
