<svg xmlns="http://www.w3.org/2000/svg" viewBox="0 0 1836 290.005">
  <defs>
    <style>
      .cls-1{filter: url(#AI_GaussianBlur_1);}
    </style>
    <filter id="AI_GaussianBlur_1" name="AI_GaussianBlur_1">
      <feGaussianBlur stdDeviation="0.65"/>
    </filter>
  </defs>
  <g class="cls-1">
    <path fill="#A8AFB7" d="M612 290H306v.005h1224V290H612zM1827.84 120.625v-4.967h-22.567v3.486h-14.982V56.227h-56.043v44.4h-6.66v-5.55h-2.96V38.846h-21.086v-2.59h-18.126v4.44h-30.7v37.363h-4.814v2.59h-13.318v-18.13H1620.3V59.56h-24.048V64h-14.428v34.4h-14.07V48.093h-16.623V32.37h-59.2v39.4h-12.22v-9.988h-15.9v2.96h-7.028v15.883h-6.418v10.81h-12.99v-4.81H1402.6v4.81h-10V75.62h-21.642v-3.295h-26.267V68.44h-25.525v7.18h-20.347v37.58h-2.405V85.92h-12.023v-5.27h-11.47v5.27h-10.728v31.353h-2.96v2.96h-2.59v4.44h-8.138v-6.29h-27.188V113.2h-4.07v5.55h-3.7v-3.33H1208v2.96h-8.51v6.29h-8.138v-4.44h-2.59v-2.96h-2.96V85.92h-10.728v-5.27h-11.47v5.27h-12.022v27.28h-2.405V75.62h-20.347v-7.18h-25.526v3.885h-26.267v3.295h-2.22v-4.96h-6.29v4.96H1055.4v15.814h-10v-4.81h-34.775v4.81H997.63v-10.81h-6.417V64.742h-7.03v-2.958h-10.727v-3.7h-3.7v3.7H958.29v9.988h-2.22v-39.4h-1.48v-7.028h-1.85V21.8h-2.59v-5.52h-4.49v-5.736S945.475 0 932.9 0s-13.69 10.544-13.69 10.544v5.734h-6.423V21.8h-1.53v3.544h-2.54v7.026h-1.85v15.723h-38.476v2.59l1.85.74V98.4h-4.068V64h-14.428v-4.44h-13.318l-1.85-5.55-2.22 5.55H827.7v2.96h-16.282v18.128H798.1v-2.59h-4.81V40.694h-10.357v-3.33h-2.59v2.96h-10.358v-3.7h-3.33v4.07h-4.07v-4.44H744.46v2.59H723.37V95.08h-2.96v5.55h-6.66V31.074H702.29v-4.81h-34.775v4.07h-9.8V94.15l-4.994 4.994h-9.99v-3.486h-10.1v-3.625l-4.3-5.717-4.09 5.574v3.768h-4.08v4.967H612v20h-8.16v-4.967h-22.567v3.486H566.29V56.227h-56.043v44.4h-6.66v-5.55h-2.96V38.846h-21.086v-2.59h-18.126v4.44h-30.7v37.363H425.9v2.59h-13.318v-18.13H396.3V59.56h-24.044V64h-14.428v34.4h-14.07V48.093h-16.623V32.37h-59.2v39.4h-12.22v-9.988h-15.9v2.96h-7.03v15.883h-6.417v10.81h-12.99v-4.81H178.6v4.81h-10V75.62h-21.64v-3.295h-26.266V68.44H95.168v7.18H74.82v37.58h-2.404V85.92H60.393v-5.27h-11.47v5.27H38.196v31.353h-2.96v2.96h-2.59v4.44h-8.138v-5.553H0V290h1836V120.625h-8.16z"/>
  </g>
</svg>
