<svg id="background-skyline-night" xmlns="http://www.w3.org/2000/svg" viewBox="0 0 372 127">
    <defs>
      <style>
        .cls-1{filter: url(#AI_GaussianBlur_1);} .st0{fill:#26394b;}
      </style>
      <filter id="AI_GaussianBlur_1" name="AI_GaussianBlur_1">
        <feGaussianBlur stdDeviation="1"/>
      </filter>
    </defs>
    <g class="cls-1">
        <path class="st0" d="M372 71h-25.5v3.6h-30.6v-3h-10.7v-3.7h-3.7v3.7H290v10h-2.3V42.2h-1.5v-7h-1.8v-3.5h-2.7v-5.5h-4.5v-5.7S277 10 264.4 10c-12.6-.1-13.7 10.4-13.7 10.4v5.7h-6.4v5.5h-1.5v3.5h-2.5v7h-1.8v15.8H200v2.6l1.8.7v47.1h-4.1V73.9h-14.4v-4.4H170l-1.8-5.5-2.2 5.5h-6.7v3H143v18.1h-13.3v-2.7h-4.8V50.5h-10.2v-3.3h-2.6v3h-10.4v-3.7h-3.3v4.1h-4.1v-4.4H76.4v2.6h-21V105h-3v5.5h-6.7V40.9H34.5v-4.8H0V137h372V71z"/>
    </g>
</svg>
