<svg id="stars_1_" xmlns="http://www.w3.org/2000/svg" viewBox="0 0 1000 700">
    <defs>
      <style>
        .cls-1{filter: url(#AI_GaussianBlur_1);} .st0{fill:#FFFFFF;enable-background:new ;}
      </style>
      <filter id="AI_GaussianBlur_1" name="AI_GaussianBlur_1">
        <feGaussianBlur stdDeviation="1"/>
      </filter>
    </defs>
    <g class="cls-1">
        <circle class="st0" cx="233.3" cy="636.1" r="1.8"/>
        <circle class="st0" cx="102.1" cy="530" r="1.8"/>
        <circle class="st0" cx="113.1" cy="498.4" r="1.1"/>
        <circle class="st0" cx="427.9" cy="648.6" r="1.8"/>
        <circle class="st0" cx="470.4" cy="618.1" r="1.8"/>
        <circle class="st0" cx="664.3" cy="520.5" r="1.8"/>
        <circle class="st0" cx="867.9" cy="503.8" r="1.1"/>
        <circle class="st0" cx="899.3" cy="549.3" r="1.8"/>
        <circle class="st0" cx="952.1" cy="440.4" r="1.8"/>
        <circle class="st0" cx="937.7" cy="357.6" r="1.8"/>
        <circle class="st0" cx="777.3" cy="153.7" r="1.8"/>
        <circle class="st0" cx="897.3" cy="90.8" r="1.8"/>
        <circle class="st0" cx="718.8" cy="64.3" r="1.1"/>
        <circle class="st0" cx="666.6" cy="189.3" r="1.8"/>
        <circle class="st0" cx="292.1" cy="93.1" r="1.8"/>
        <circle class="st0" cx="233.3" cy="636.1" r="1.8"/>
        <circle class="st0" cx="178.3" cy="125.7" r="1.1"/>
        <circle class="st0" cx="102.6" cy="211.7" r="1.8"/>
        <circle class="st0" cx="37.9" cy="301.3" r="1.8"/>
        <circle class="st0" cx="219.1" cy="348" r="1.8"/>
        <circle class="st0" cx="219.2" cy="234.2" r="1.8"/>
        <circle class="st0" cx="258.9" cy="270.2" r="1.8"/>
        <circle class="st0" cx="753.6" cy="447.1" r="1.1"/>
        <circle class="st0" cx="805.9" cy="379.8" r="1.8"/>
        <circle class="st0" cx="687.8" cy="275.7" r="1.1"/>
        <circle class="st0" cx="785" cy="336.3" r="1.8"/>
        <circle class="st0" cx="714.7" cy="356.8" r="1.8"/>
        <circle class="st0" cx="320.2" cy="457.2" r="1.8"/>
        <circle class="st0" cx="300.8" cy="477" r="1.1"/>
        <circle class="st0" cx="66.2" cy="72.2" r="1.8"/>
        <circle class="st0" cx="833" cy="243.4" r="1.1"/>
    </g>
</svg>
