<svg xmlns="http://www.w3.org/2000/svg" id="clouds" viewBox="0 0 1066 283">
  <defs>
    <style>
      .cls-1 { fill: #fff; }
      .cls-2 { fill: #e8f2f7; }
      .cls-3{ opacity: 0.95; filter: url(#AI_GaussianBlur_1); }
    </style>
    <filter id="AI_GaussianBlur_1" name="AI_GaussianBlur_1">
      <feGaussianBlur stdDeviation="4.00"/>
    </filter>
  </defs>
  <g class="cls-3">
    <path class="cls-1" d="M1039.47 57.18c-7.97-14.593-31.85-26.286-33.47-12.17.07-6.24.288-29.445-25.84-34.856-8.247-1.71-25.346 11.235-18.116 19.637-12.08-5.304-24.942.84-23.8 13.095-.254-.59-11.324-8.508-20.663 17.124-3.613-13.686-29.443-16.263-36.046-9.933-15.53-21.912-25.893 2.1-27.22 2.575-4.195 1.506-7.982 4.684-7.67 9.952-3.085-2.864-9.45 1.31-11.142 4.44-2.567 4.75-1.746 10.867-5.344 15.883C820.468 62.3 811.49 72.42 805.9 74.6c-7.878-7.51-22.878 12.522-19.49 22.955-5.072-3.1-14.594 11.906-11.91 26.345-5.7.47-10.438 6.123-12.772 7.656-.673-6.1-3.254-13.748-10.98-15.026-6.26-1.035-8.8 3.545-10.1 7.257-.065.187-11.136 4.97-13.033 9.568a19.31 19.31 0 0 0-7.1-4.723c-2.982-9.287-9.342-18.912-18.093-15.474.6-6.735-14.844-26.672-24.682-21.33-13.165 9.745-6.606-4.783-25.747 11.71-9.54-12.376-22.573-.774-22.73 9.4-2.3 2.782-5.487 4.4-10.063 2.514-2.385-14.125-15.02-4.158-18.468-9.227 5.11-6.024-9.526-21.637-17.565-12.778 1.722-17.54-12.567-17.3-21.91-13.28-5.023 2.162-12.305 12.6-13.533 20.23-2.05-4.33-9.778-12.235-14.72-7.924-4.94-4.31-12.668 3.6-14.718 7.923-1.228-7.635-8.51-18.067-13.534-20.23-9.342-4.02-23.63-4.26-21.91 13.28-8.04-8.857-22.674 6.755-17.564 12.78-3.45 5.068-16.083-4.9-18.468 9.226-4.577 1.888-7.764.268-10.063-2.513-.156-10.18-13.19-21.78-22.73-9.4-19.14-16.495-12.582-1.967-25.747-11.713-9.84-5.34-25.285 14.6-24.682 21.33-8.75-3.437-15.112 6.188-18.093 15.475a19.312 19.312 0 0 0-7.1 4.723c-1.9-4.6-12.968-9.38-13.032-9.568-1.3-3.712-3.84-8.29-10.1-7.257-7.727 1.278-10.308 8.926-10.98 15.026-2.336-1.533-7.07-7.185-12.772-7.656 2.684-14.44-6.838-29.45-11.91-26.345 3.38-10.43-11.62-30.462-19.5-22.955-5.592-2.184-14.57-12.3-24.264 8.324-3.6-5.016-2.777-11.133-5.344-15.884-1.69-3.13-8.056-7.3-11.14-4.44.31-5.267-3.476-8.445-7.67-9.95-1.328-.477-11.692-24.488-27.22-2.576-6.6-6.33-32.434-3.753-36.048 9.932-9.338-25.632-20.408-17.712-20.663-17.124 1.143-12.254-11.718-18.4-23.8-13.094 7.23-8.4-9.868-21.348-18.114-19.637C59.71 15.566 59.926 38.77 60 45.01c-1.617-14.116-25.5-2.423-33.466 12.17-4.286 7.85.58 14.247 1.424 17.643 4.31-3.336 9.41-4.738 13.938-1.06 1.286-5.868 19.68-18.59 26.577-11.422 8.537 11.8 6.867 1.643 18.656 20.766 11.376-7.914 19.306 5.422 16.722 14.09 1.2 2.968 3.828.604 6.1-1.063 5.79-11.32 15.527 5.065 19.8 1.7-2.713-6.478 14.554-16.563 18.99-6.894 3.227-15.316 21.434-11.15 28.262-5.226 3.675 3.187 5.438 6.787 4.44 13.59 2.887-3.12 10.916-9.473 17.98-4.044 2.17-3.725 8.846-4.76 16.34-1.22 10.042 4.74 5.446 20.518 9.3 19.91 14.01-2.213 5.867 15.66 16.6 12.854 7.015-1.835 22.01-2.35 21.034 14.342 7.653-.776 10.174-13.19 18.423-13.622 10.857-.577 11.838 14.265 22.89 11.027 6.823-1.988 28.32 3.93 28.553 11.76.69.156 1.413.342 2.162.55 11.082-10.917 26.05-15.152 32.308-4.67 7.664 1.94 14.113-6.455 21.154-4.31 2.136-15.832 25.486-15.552 31.736-12.536 9.57 4.616 7.52-8.438 20.27-3.766 3.51 1.283 2.977-7.46 13.174-10.4 6.046-1.742 17.017 2.532 18.373 6.427 7.63-3.782 11.887 1.824 14.03 5.283.307-6.56 5.185-12.655 9.22-14.964 7.5-4.29 19.532-5.86 19.76 9.106 7.85-3.163 15.25 2.617 18.25 10.606 3-7.99 10.4-13.77 18.254-10.607.228-14.967 12.26-13.395 19.76-9.107 4.036 2.31 8.914 8.4 9.222 14.964 2.142-3.46 6.4-9.065 14.03-5.283 1.354-3.9 12.326-8.17 18.372-6.427 10.2 2.945 9.662 11.687 13.174 10.4 12.75-4.672 10.7 8.382 20.27 3.766 6.25-3.017 29.6-3.3 31.736 12.535 7.04-2.143 13.49 6.25 21.154 4.31 6.257-10.48 21.226-6.246 32.308 4.672.75-.21 1.473-.395 2.162-.552.232-7.828 21.73-13.747 28.553-11.758 11.052 3.238 12.033-11.6 22.89-11.027 8.248.433 10.77 12.846 18.422 13.622-.977-16.692 14.02-16.177 21.033-14.342 10.737 2.805 2.592-15.067 16.6-12.855 3.857.61-.74-15.167 9.3-19.91 7.495-3.54 14.17-2.5 16.34 1.22 7.066-5.428 15.095.924 17.98 4.044-1-6.8.767-10.4 4.44-13.59 6.83-5.924 25.036-10.09 28.264 5.226 4.435-9.67 21.7.416 18.99 6.894 4.27 3.36 14.008-13.026 19.8-1.7 2.267 1.667 4.9 4.03 6.1 1.062-2.585-8.667 5.345-22 16.722-14.09 11.79-19.122 10.12-8.96 18.656-20.764 6.9-7.17 25.292 5.554 26.578 11.423 4.53-3.68 9.628-2.277 13.938 1.06.842-3.396 5.708-9.793 1.42-17.644z"/>
    <path class="cls-2" d="M1047.263 87.524c-2.725-8.116-14.084-21.13-23.155-13.76-1.286-5.87-19.68-18.592-26.578-11.423-8.537 11.8-6.867 1.643-18.656 20.766-11.377-7.914-19.307 5.422-16.723 14.09-1.2 2.968-3.827.604-6.1-1.063-5.79-11.32-15.526 5.065-19.8 1.7 2.714-6.478-14.553-16.563-18.988-6.894-3.228-15.316-21.435-11.15-28.263-5.226-3.676 3.187-5.44 6.787-4.44 13.59-2.887-3.12-10.917-9.473-17.98-4.044-2.172-3.725-8.847-4.76-16.342-1.22-10.042 4.74-5.445 20.518-9.3 19.91-14.01-2.213-5.866 15.66-16.6 12.854-7.014-1.835-22.01-2.35-21.033 14.342-7.653-.776-10.174-13.19-18.423-13.622-10.856-.577-11.837 14.265-22.89 11.027-6.822-1.988-28.32 3.93-28.552 11.76-.69.156-1.413.342-2.162.55-11.082-10.917-26.05-15.152-32.308-4.67-7.664 1.94-14.113-6.455-21.154-4.31-2.136-15.832-25.486-15.552-31.736-12.536-9.57 4.616-7.52-8.438-20.27-3.766-3.51 1.283-2.977-7.46-13.174-10.4-6.046-1.742-17.017 2.532-18.373 6.427-7.63-3.782-11.887 1.824-14.03 5.283-.307-6.56-5.185-12.655-9.22-14.964-7.5-4.29-19.532-5.86-19.76 9.106C543.4 117.867 536 123.647 533 131.636c-3-7.99-10.4-13.77-18.254-10.607-.228-14.967-12.26-13.395-19.76-9.107-4.036 2.31-8.914 8.4-9.222 14.964-2.142-3.46-6.4-9.065-14.03-5.283-1.354-3.9-12.326-8.17-18.372-6.427-10.2 2.945-9.662 11.687-13.174 10.4-12.75-4.672-10.7 8.382-20.27 3.766-6.25-3.017-29.6-3.3-31.736 12.535-7.04-2.143-13.49 6.25-21.154 4.31-6.257-10.48-21.226-6.246-32.308 4.672-.75-.21-1.473-.395-2.162-.552-.232-7.828-21.73-13.747-28.553-11.758-11.052 3.238-12.033-11.6-22.89-11.027-8.248.433-10.77 12.846-18.422 13.622.977-16.692-14.02-16.177-21.033-14.342-10.737 2.805-2.592-15.067-16.6-12.855-3.857.61.74-15.167-9.3-19.91-7.5-3.54-14.17-2.5-16.34 1.22-7.066-5.428-15.095.924-17.98 4.044 1-6.8-.767-10.4-4.44-13.59-6.83-5.924-25.036-10.09-28.264 5.226-4.434-9.67-21.7.416-18.99 6.894-4.27 3.36-14.007-13.026-19.8-1.7-2.267 1.667-4.9 4.03-6.1 1.062 2.585-8.667-5.345-22-16.722-14.09-11.787-19.12-10.117-8.96-18.654-20.763-6.9-7.168-25.292 5.555-26.577 11.424-9.07-7.37-20.43 5.644-23.155 13.76C11.98 74.362 4.536 81.952 0 83.88V283h1066V83.88c-4.536-1.928-11.98-9.518-18.737 3.644z"/>
  </g>
</svg>
