<svg id="clouds" xmlns="http://www.w3.org/2000/svg" viewBox="0 0 533 283">
    <defs>
      <style>
        .cls-1{filter: url(#AI_GaussianBlur_3);} .st0{opacity:6.000000e-02;fill:#FFFFFF;} .st1{opacity:0.1;fill:#FFFFFF;}
      </style>
      <filter id="AI_GaussianBlur_3" name="AI_GaussianBlur_3">
        <feGaussianBlur stdDeviation="3"/>
      </filter>
    </defs>
    <g class="cls-1">
        <path class="st0" d="M18.3 121c.2-15 12.3-13.4 19.8-9.1 4 2.3 8.9 8.4 9.2 15 2.1-3.5 6.4-9.1 14-5.3 1.4-3.9 12.3-8.2 18.4-6.4 10.2 2.9 9.7 11.7 13.2 10.4 12.7-4.7 10.7 8.4 20.3 3.8 6.3-3 29.6-3.3 31.7 12.5 7-2.1 13.5 6.3 21.2 4.3 6.3-10.5 21.2-6.2 32.3 4.7.7-.2 1.5-.4 2.2-.6.2-7.8 21.7-13.7 28.6-11.8 11.1 3.2 12-11.6 22.9-11 8.2.4 10.8 12.8 18.4 13.6-1-16.7 14-16.2 21-14.3 10.7 2.8 2.6-15.1 16.6-12.9 3.9.6-.7-15.2 9.3-19.9 7.5-3.5 14.2-2.5 16.3 1.2 7.1-5.4 15.1.9 18 4-1-6.8.8-10.4 4.4-13.6 6.8-5.9 25-10.1 28.3 5.2 4.4-9.7 21.7.4 19 6.9 4.3 3.4 14-13 19.8-1.7 2.3 1.7 4.9 4 6.1 1.1-2.6-8.7 5.3-22 16.7-14.1 11.8-19.1 10.1-9 18.7-20.8 6.9-7.2 25.3 5.6 26.6 11.4 4.5-3.7 9.6-2.3 13.9 1.1.8-3.4 5.7-9.8 1.4-17.6-8-14.6-31.8-26.3-33.5-12.2.1-6.2.3-29.4-25.8-34.9-8.2-1.7-25.3 11.2-18.1 19.6-12.1-5.3-24.9.8-23.8 13.1-.3-.6-11.3-8.5-20.7 17.1-3.6-13.7-29.4-16.3-36-9.9-15.5-21.9-25.9 2.1-27.2 2.6-4.2 1.5-8 4.7-7.7 10-3.1-2.9-9.4 1.3-11.1 4.4-2.6 4.8-1.7 10.9-5.3 15.9-9.7-20.6-18.7-10.5-24.3-8.3-7.9-7.5-22.9 12.5-19.5 23-5.1-3.1-14.6 11.9-11.9 26.3-5.7.5-10.4 6.1-12.8 7.7-.7-6.1-3.3-13.7-11-15-6.3-1-8.8 3.5-10.1 7.3-.1.2-11.1 5-13 9.6-2.7-2.6-5.1-4-7.1-4.7-3-9.3-9.3-18.9-18.1-15.5.6-6.7-14.8-26.7-24.7-21.3-13.2 9.7-6.6-4.8-25.7 11.7-9.5-12.4-22.6-.8-22.7 9.4-2.3 2.8-5.5 4.4-10.1 2.5-2.4-14.1-15-4.2-18.5-9.2 5.1-6-9.5-21.6-17.6-12.8C52 76 37.7 76.2 28.4 80.2c-5 2.2-12.3 12.6-13.5 20.2-2-4.3-9.8-12.2-14.7-7.9v39.2c2.8-8.1 10.2-13.8 18.1-10.7z"/>
        <path class="st1" d="M514.3 87.5c-2.7-8.1-14.1-21.1-23.2-13.8-1.3-5.9-19.7-18.6-26.6-11.4-8.5 11.8-6.9 1.6-18.7 20.8-11.4-7.9-19.3 5.4-16.7 14.1-1.2 3-3.8.6-6.1-1.1-5.8-11.3-15.5 5.1-19.8 1.7 2.7-6.5-14.6-16.6-19-6.9-3.2-15.3-21.4-11.2-28.3-5.2-3.7 3.2-5.4 6.8-4.4 13.6-2.9-3.1-10.9-9.5-18-4-2.2-3.7-8.8-4.8-16.3-1.2-10 4.7-5.4 20.5-9.3 19.9-14-2.2-5.9 15.7-16.6 12.9-7-1.8-22-2.3-21 14.3-7.7-.8-10.2-13.2-18.4-13.6-10.9-.6-11.8 14.3-22.9 11-6.8-2-28.3 3.9-28.6 11.8-.7.2-1.4.3-2.2.6-11.1-10.9-26.1-15.2-32.3-4.7-7.7 1.9-14.1-6.5-21.2-4.3-2.1-15.8-25.5-15.6-31.7-12.5-9.6 4.6-7.5-8.4-20.3-3.8-3.5 1.3-3-7.5-13.2-10.4-6-1.7-17 2.5-18.4 6.4-7.6-3.8-11.9 1.8-14 5.3-.3-6.6-5.2-12.7-9.2-15-7.5-4.3-19.5-5.9-19.8 9.1-7.7-3.2-15.1 2.5-18.1 10.5V283h533V83.9c-4.5-1.9-12-9.5-18.7 3.6z"/>
    </g>
</svg>
