<svg id="clouds" xmlns="http://www.w3.org/2000/svg" viewBox="0 0 533 283">
    <defs>
      <style>
        .cls-1{filter: url(#AI_GaussianBlur_3);}
      </style>
      <filter id="AI_GaussianBlur_3" name="AI_GaussianBlur_3">
        <feGaussianBlur stdDeviation="3"/>
      </filter>
    </defs>
    <g class="cls-1">
        <path fill="#FFFFFF" d="M18.3,121c0.2-15,12.3-13.4,19.8-9.1c4,2.3,8.9,8.4,9.2,15c2.1-3.5,6.4-9.1,14-5.3 c1.4-3.9,12.3-8.2,18.4-6.4c10.2,2.9,9.7,11.7,13.2,10.4c12.7-4.7,10.7,8.4,20.3,3.8c6.3-3,29.6-3.3,31.7,12.5 c7-2.1,13.5,6.3,21.2,4.3c6.3-10.5,21.2-6.2,32.3,4.7c0.7-0.2,1.5-0.4,2.2-0.6c0.2-7.8,21.7-13.7,28.6-11.8 c11.1,3.2,12-11.6,22.9-11c8.2,0.4,10.8,12.8,18.4,13.6c-1-16.7,14-16.2,21-14.3c10.7,2.8,2.6-15.1,16.6-12.9 c3.9,0.6-0.7-15.2,9.3-19.9c7.5-3.5,14.2-2.5,16.3,1.2c7.1-5.4,15.1,0.9,18,4c-1-6.8,0.8-10.4,4.4-13.6c6.8-5.9,25-10.1,28.3,5.2 c4.4-9.7,21.7,0.4,19,6.9c4.3,3.4,14-13,19.8-1.7c2.3,1.7,4.9,4,6.1,1.1c-2.6-8.7,5.3-22,16.7-14.1c11.8-19.1,10.1-9,18.7-20.8 c6.9-7.2,25.3,5.6,26.6,11.4c4.5-3.7,9.6-2.3,13.9,1.1c0.8-3.4,5.7-9.8,1.4-17.6c-8-14.6-31.8-26.3-33.5-12.2 c0.1-6.2,0.3-29.4-25.8-34.9c-8.2-1.7-25.3,11.2-18.1,19.6c-12.1-5.3-24.9,0.8-23.8,13.1c-0.3-0.6-11.3-8.5-20.7,17.1 c-3.6-13.7-29.4-16.3-36-9.9c-15.5-21.9-25.9,2.1-27.2,2.6c-4.2,1.5-8,4.7-7.7,10c-3.1-2.9-9.4,1.3-11.1,4.4 c-2.6,4.8-1.7,10.9-5.3,15.9c-9.7-20.6-18.7-10.5-24.3-8.3c-7.9-7.5-22.9,12.5-19.5,23c-5.1-3.1-14.6,11.9-11.9,26.3 c-5.7,0.5-10.4,6.1-12.8,7.7c-0.7-6.1-3.3-13.7-11-15c-6.3-1-8.8,3.5-10.1,7.3c-0.1,0.2-11.1,5-13,9.6c-2.7-2.6-5.1-4-7.1-4.7 c-3-9.3-9.3-18.9-18.1-15.5c0.6-6.7-14.8-26.7-24.7-21.3c-13.2,9.7-6.6-4.8-25.7,11.7c-9.5-12.4-22.6-0.8-22.7,9.4 c-2.3,2.8-5.5,4.4-10.1,2.5c-2.4-14.1-15-4.2-18.5-9.2c5.1-6-9.5-21.6-17.6-12.8C52,76,37.7,76.2,28.4,80.2 c-5,2.2-12.3,12.6-13.5,20.2c-2-4.3-9.8-12.2-14.7-7.9v39.2C3,123.6,10.4,117.9,18.3,121z"/>
        <path fill="#E8F2F7" d="M514.3,87.5c-2.7-8.1-14.1-21.1-23.2-13.8c-1.3-5.9-19.7-18.6-26.6-11.4 c-8.5,11.8-6.9,1.6-18.7,20.8c-11.4-7.9-19.3,5.4-16.7,14.1c-1.2,3-3.8,0.6-6.1-1.1c-5.8-11.3-15.5,5.1-19.8,1.7 c2.7-6.5-14.6-16.6-19-6.9c-3.2-15.3-21.4-11.2-28.3-5.2c-3.7,3.2-5.4,6.8-4.4,13.6c-2.9-3.1-10.9-9.5-18-4 c-2.2-3.7-8.8-4.8-16.3-1.2c-10,4.7-5.4,20.5-9.3,19.9c-14-2.2-5.9,15.7-16.6,12.9c-7-1.8-22-2.3-21,14.3 c-7.7-0.8-10.2-13.2-18.4-13.6c-10.9-0.6-11.8,14.3-22.9,11c-6.8-2-28.3,3.9-28.6,11.8c-0.7,0.2-1.4,0.3-2.2,0.6 c-11.1-10.9-26.1-15.2-32.3-4.7c-7.7,1.9-14.1-6.5-21.2-4.3c-2.1-15.8-25.5-15.6-31.7-12.5c-9.6,4.6-7.5-8.4-20.3-3.8 c-3.5,1.3-3-7.5-13.2-10.4c-6-1.7-17,2.5-18.4,6.4c-7.6-3.8-11.9,1.8-14,5.3c-0.3-6.6-5.2-12.7-9.2-15c-7.5-4.3-19.5-5.9-19.8,9.1 C10.4,117.9,3,123.6,0,131.6V283h533V83.9C528.5,82,521,74.4,514.3,87.5z"/>
    </g>
</svg>
