<svg xmlns="http://www.w3.org/2000/svg" viewBox="0 0 40 34">
  <title>
    GitHub
  </title>
  <desc>
    GitHub's logo, the Octocat.
  </desc>
  <path fill="white" fill-rule="evenodd" d="M37.09 9.402c.41-2.168.82-6.054-.43-9.062-3.926.312-6.992 2.168-8.75 3.515C25.547 3.21 22.87 2.84 20 2.84s-5.547.37-7.97 1.015C10.333 2.508 7.267.652 3.34.34c-1.25 3.047-.84 6.894-.43 9.12C1.074 11.728 0 14.6 0 17.84 0 29.5 7.5 33.66 20 33.66s20-4.16 20-15.88c0-3.24-1.074-6.053-2.91-8.378zM20 31.16c-10.84 0-14.727-3.32-14.727-8.32 0-5.84 4.727-7.09 7.227-7.09s2.5.41 7.5.41 5-.41 7.5-.41 7.227 1.25 7.227 7.09c0 5-3.887 8.32-14.727 8.32zM13.75 19.5c-1.152 0-2.09.84-2.09 3.75S12.598 27 13.75 27s2.09-.84 2.09-3.75-.938-3.75-2.09-3.75zm12.5 0c-1.152 0-2.09.84-2.09 3.75S25.098 27 26.25 27s2.09-.84 2.09-3.75-.938-3.75-2.09-3.75z"/>
</svg>
